<svg xmlns="http://www.w3.org/2000/svg" width="800" height="120" viewBox="0 0 800 120" role="img" aria-label="mission"><defs><linearGradient id="tb" x1="0" x2="1"><stop offset="0" stop-color="#ffb3e1"/><stop offset=".55" stop-color="#b9a2ff"/><stop offset="1" stop-color="#9fe8ff"/></linearGradient>
<clipPath id="clip"><rect x="2" y="2" width="792" height="112" rx="10"/></clipPath></defs>
<rect x="6" y="6" width="792" height="112" rx="10" fill="#7b5cff" fill-opacity=".35"/>
<rect x="2" y="2" width="792" height="112" rx="10" fill="#f6ecff" stroke="#b69cff" stroke-width="2"/>
<g clip-path="url(#clip)"><rect x="2" y="2" width="792" height="36" fill="url(#tb)"/>
<line x1="2" x2="794" y1="38" y2="38" stroke="#b69cff" stroke-width="2"/></g>
<text x="16" y="25" font-family="ui-monospace,SFMono-Regular,Menlo,Consolas,'Courier New',monospace" font-size="14" font-weight="700" fill="#3b2a66">✿ mission.exe</text>
<g transform="translate(-6,2)"><rect x="760" y="7" width="22" height="22" rx="4" fill="#fff" stroke="#b69cff" stroke-width="1.5"/><path d="M767 13L775 21M775 13L767 21" stroke="#3b2a66" stroke-width="2" stroke-linecap="round"/><rect x="734" y="7" width="22" height="22" rx="4" fill="#fff" stroke="#b69cff" stroke-width="1.5"/><rect x="741" y="14" width="8" height="8" rx="1" fill="none" stroke="#3b2a66" stroke-width="2"/><rect x="708" y="7" width="22" height="22" rx="4" fill="#fff" stroke="#b69cff" stroke-width="1.5"/><path d="M715 21H723" stroke="#3b2a66" stroke-width="2" stroke-linecap="round"/><circle cx="686" cy="18" r="6" fill="#9fe8ff" stroke="#7b5cff" stroke-opacity=".45"/><circle cx="668" cy="18" r="6" fill="#ffe08a" stroke="#7b5cff" stroke-opacity=".45"/><circle cx="650" cy="18" r="6" fill="#ffb3e1" stroke="#7b5cff" stroke-opacity=".45"/></g><text x="24" y="70" font-family="ui-monospace,SFMono-Regular,Menlo,Consolas,'Courier New',monospace" font-size="15" fill="#3b2a66"><tspan font-weight="700" fill="#d6349b">mission:</tspan> become a digital guru &amp; inspire others to explore digital art</text>
<text x="24" y="96" font-family="ui-monospace,SFMono-Regular,Menlo,Consolas,'Courier New',monospace" font-size="13" fill="#7b3fe4">✧ authentically maximalist ·  · Lotus Pond Creative, since 2024 ✧</text></svg>