<svg xmlns="http://www.w3.org/2000/svg" width="800" height="280" viewBox="0 0 800 280" role="img" aria-label="tech stack"><defs><linearGradient id="tb" x1="0" x2="1"><stop offset="0" stop-color="#ffb3e1"/><stop offset=".55" stop-color="#b9a2ff"/><stop offset="1" stop-color="#9fe8ff"/></linearGradient>
<clipPath id="clip"><rect x="2" y="2" width="792" height="272" rx="10"/></clipPath></defs>
<rect x="6" y="6" width="792" height="272" rx="10" fill="#7b5cff" fill-opacity=".35"/>
<rect x="2" y="2" width="792" height="272" rx="10" fill="#f6ecff" stroke="#b69cff" stroke-width="2"/>
<g clip-path="url(#clip)"><rect x="2" y="2" width="792" height="36" fill="url(#tb)"/>
<line x1="2" x2="794" y1="38" y2="38" stroke="#b69cff" stroke-width="2"/></g>
<text x="16" y="25" font-family="ui-monospace,SFMono-Regular,Menlo,Consolas,'Courier New',monospace" font-size="14" font-weight="700" fill="#3b2a66">☆ tech_stack.exe</text>
<g transform="translate(-6,2)"><rect x="760" y="7" width="22" height="22" rx="4" fill="#fff" stroke="#b69cff" stroke-width="1.5"/><path d="M767 13L775 21M775 13L767 21" stroke="#3b2a66" stroke-width="2" stroke-linecap="round"/><rect x="734" y="7" width="22" height="22" rx="4" fill="#fff" stroke="#b69cff" stroke-width="1.5"/><rect x="741" y="14" width="8" height="8" rx="1" fill="none" stroke="#3b2a66" stroke-width="2"/><rect x="708" y="7" width="22" height="22" rx="4" fill="#fff" stroke="#b69cff" stroke-width="1.5"/><path d="M715 21H723" stroke="#3b2a66" stroke-width="2" stroke-linecap="round"/><circle cx="686" cy="18" r="6" fill="#9fe8ff" stroke="#7b5cff" stroke-opacity=".45"/><circle cx="668" cy="18" r="6" fill="#ffe08a" stroke="#7b5cff" stroke-opacity=".45"/><circle cx="650" cy="18" r="6" fill="#ffb3e1" stroke="#7b5cff" stroke-opacity=".45"/></g><text x="24" y="62" font-family="ui-monospace,SFMono-Regular,Menlo,Consolas,'Courier New',monospace" font-size="12" font-weight="700" fill="#8a75b8">languages</text><g><rect x="24" y="72" width="56" height="28" rx="8" fill="#fff" stroke="#d9c8ff" stroke-width="2"/><rect x="27" y="75" width="50" height="22" rx="6" fill="#ffe1f3"/><text x="52.0" y="91" text-anchor="middle" font-family="ui-monospace,SFMono-Regular,Menlo,Consolas,'Courier New',monospace" font-size="13" font-weight="700" fill="#d6349b">HTML</text></g><g><rect x="90" y="72" width="48" height="28" rx="8" fill="#fff" stroke="#d9c8ff" stroke-width="2"/><rect x="93" y="75" width="42" height="22" rx="6" fill="#e9dcff"/><text x="114.0" y="91" text-anchor="middle" font-family="ui-monospace,SFMono-Regular,Menlo,Consolas,'Courier New',monospace" font-size="13" font-weight="700" fill="#7b3fe4">CSS</text></g><g><rect x="148" y="72" width="96" height="28" rx="8" fill="#fff" stroke="#d9c8ff" stroke-width="2"/><rect x="151" y="75" width="90" height="22" rx="6" fill="#dff7ff"/><text x="196.0" y="91" text-anchor="middle" font-family="ui-monospace,SFMono-Regular,Menlo,Consolas,'Courier New',monospace" font-size="13" font-weight="700" fill="#1f8aa8">Bootstrap</text></g><g><rect x="254" y="72" width="104" height="28" rx="8" fill="#fff" stroke="#d9c8ff" stroke-width="2"/><rect x="257" y="75" width="98" height="22" rx="6" fill="#ffe1f3"/><text x="306.0" y="91" text-anchor="middle" font-family="ui-monospace,SFMono-Regular,Menlo,Consolas,'Courier New',monospace" font-size="13" font-weight="700" fill="#d6349b">JavaScript</text></g><g><rect x="368" y="72" width="64" height="28" rx="8" fill="#fff" stroke="#d9c8ff" stroke-width="2"/><rect x="371" y="75" width="58" height="22" rx="6" fill="#e9dcff"/><text x="400.0" y="91" text-anchor="middle" font-family="ui-monospace,SFMono-Regular,Menlo,Consolas,'Courier New',monospace" font-size="13" font-weight="700" fill="#7b3fe4">React</text></g><g><rect x="442" y="72" width="104" height="28" rx="8" fill="#fff" stroke="#d9c8ff" stroke-width="2"/><rect x="445" y="75" width="98" height="22" rx="6" fill="#dff7ff"/><text x="494.0" y="91" text-anchor="middle" font-family="ui-monospace,SFMono-Regular,Menlo,Consolas,'Courier New',monospace" font-size="13" font-weight="700" fill="#1f8aa8">TypeScript</text></g><g><rect x="556" y="72" width="88" height="28" rx="8" fill="#fff" stroke="#d9c8ff" stroke-width="2"/><rect x="559" y="75" width="82" height="22" rx="6" fill="#ffe1f3"/><text x="600.0" y="91" text-anchor="middle" font-family="ui-monospace,SFMono-Regular,Menlo,Consolas,'Courier New',monospace" font-size="13" font-weight="700" fill="#d6349b">Three.js</text></g><g><rect x="24" y="110" width="128" height="28" rx="8" fill="#fff" stroke="#d9c8ff" stroke-width="2"/><rect x="27" y="113" width="122" height="22" rx="6" fill="#e9dcff"/><text x="88.0" y="129" text-anchor="middle" font-family="ui-monospace,SFMono-Regular,Menlo,Consolas,'Courier New',monospace" font-size="13" font-weight="700" fill="#7b3fe4">Swift/SwiftUI</text></g><g><rect x="162" y="110" width="72" height="28" rx="8" fill="#fff" stroke="#d9c8ff" stroke-width="2"/><rect x="165" y="113" width="66" height="22" rx="6" fill="#dff7ff"/><text x="198.0" y="129" text-anchor="middle" font-family="ui-monospace,SFMono-Regular,Menlo,Consolas,'Courier New',monospace" font-size="13" font-weight="700" fill="#1f8aa8">Python</text></g><text x="24" y="162" font-family="ui-monospace,SFMono-Regular,Menlo,Consolas,'Courier New',monospace" font-size="12" font-weight="700" fill="#8a75b8">tools</text><g><rect x="24" y="172" width="80" height="28" rx="8" fill="#fff" stroke="#d9c8ff" stroke-width="2"/><rect x="27" y="175" width="74" height="22" rx="6" fill="#ffe1f3"/><text x="64.0" y="191" text-anchor="middle" font-family="ui-monospace,SFMono-Regular,Menlo,Consolas,'Courier New',monospace" font-size="13" font-weight="700" fill="#d6349b">Blender</text></g><g><rect x="114" y="172" width="80" height="28" rx="8" fill="#fff" stroke="#d9c8ff" stroke-width="2"/><rect x="117" y="175" width="74" height="22" rx="6" fill="#e9dcff"/><text x="154.0" y="191" text-anchor="middle" font-family="ui-monospace,SFMono-Regular,Menlo,Consolas,'Courier New',monospace" font-size="13" font-weight="700" fill="#7b3fe4">VS Code</text></g><g><rect x="204" y="172" width="64" height="28" rx="8" fill="#fff" stroke="#d9c8ff" stroke-width="2"/><rect x="207" y="175" width="58" height="22" rx="6" fill="#dff7ff"/><text x="236.0" y="191" text-anchor="middle" font-family="ui-monospace,SFMono-Regular,Menlo,Consolas,'Courier New',monospace" font-size="13" font-weight="700" fill="#1f8aa8">Xcode</text></g><g><rect x="278" y="172" width="72" height="28" rx="8" fill="#fff" stroke="#d9c8ff" stroke-width="2"/><rect x="281" y="175" width="66" height="22" rx="6" fill="#ffe1f3"/><text x="314.0" y="191" text-anchor="middle" font-family="ui-monospace,SFMono-Regular,Menlo,Consolas,'Courier New',monospace" font-size="13" font-weight="700" fill="#d6349b">Sketch</text></g><g><rect x="360" y="172" width="64" height="28" rx="8" fill="#fff" stroke="#d9c8ff" stroke-width="2"/><rect x="363" y="175" width="58" height="22" rx="6" fill="#e9dcff"/><text x="392.0" y="191" text-anchor="middle" font-family="ui-monospace,SFMono-Regular,Menlo,Consolas,'Courier New',monospace" font-size="13" font-weight="700" fill="#7b3fe4">Figma</text></g><g><rect x="434" y="172" width="112" height="28" rx="8" fill="#fff" stroke="#d9c8ff" stroke-width="2"/><rect x="437" y="175" width="106" height="22" rx="6" fill="#dff7ff"/><text x="490.0" y="191" text-anchor="middle" font-family="ui-monospace,SFMono-Regular,Menlo,Consolas,'Courier New',monospace" font-size="13" font-weight="700" fill="#1f8aa8">Adobe Suite</text></g><text x="24" y="224" font-family="ui-monospace,SFMono-Regular,Menlo,Consolas,'Courier New',monospace" font-size="12" font-weight="700" fill="#8a75b8">platforms</text><g><rect x="24" y="234" width="48" height="28" rx="8" fill="#fff" stroke="#d9c8ff" stroke-width="2"/><rect x="27" y="237" width="42" height="22" rx="6" fill="#ffe1f3"/><text x="48.0" y="253" text-anchor="middle" font-family="ui-monospace,SFMono-Regular,Menlo,Consolas,'Courier New',monospace" font-size="13" font-weight="700" fill="#d6349b">iOS</text></g><g><rect x="82" y="234" width="72" height="28" rx="8" fill="#fff" stroke="#d9c8ff" stroke-width="2"/><rect x="85" y="237" width="66" height="22" rx="6" fill="#e9dcff"/><text x="118.0" y="253" text-anchor="middle" font-family="ui-monospace,SFMono-Regular,Menlo,Consolas,'Courier New',monospace" font-size="13" font-weight="700" fill="#7b3fe4">iPadOS</text></g><g><rect x="164" y="234" width="88" height="28" rx="8" fill="#fff" stroke="#d9c8ff" stroke-width="2"/><rect x="167" y="237" width="82" height="22" rx="6" fill="#dff7ff"/><text x="208.0" y="253" text-anchor="middle" font-family="ui-monospace,SFMono-Regular,Menlo,Consolas,'Courier New',monospace" font-size="13" font-weight="700" fill="#1f8aa8">visionOS</text></g><g><rect x="262" y="234" width="64" height="28" rx="8" fill="#fff" stroke="#d9c8ff" stroke-width="2"/><rect x="265" y="237" width="58" height="22" rx="6" fill="#ffe1f3"/><text x="294.0" y="253" text-anchor="middle" font-family="ui-monospace,SFMono-Regular,Menlo,Consolas,'Courier New',monospace" font-size="13" font-weight="700" fill="#d6349b">Tauri</text></g></svg>